<?xml version="1.0" encoding="UTF-8"?>
<svg id="_레이어_1" data-name="레이어_1" xmlns="http://www.w3.org/2000/svg" version="1.1" viewBox="0 0 409.6 499.02">
  <defs>
    <style>
      .st0 {
        fill: #452e82;
      }
    </style>
  </defs>
  <path class="st0" d="M268.22,498.99l62.48.03c1.92-.36,2.98-1.63,2.98-3.36l-.08-50.34c0-3.81-3.37-6.46-6.86-6.46l-54.73.02c-4.09,0-6.77,3.56-6.77,7.34l.02,49.92c0,1.57,1.34,2.85,2.96,2.86Z"/>
  <circle class="st0" cx="244.92" cy="169.61" r="41.52" transform="translate(-32.42 60.81) rotate(-13.28)"/>
  <path class="st0" d="M409.22,462.51l.2-114.66c0-2.1-1.58-3.35-3.52-3.35h-137.15c-2.35,0-3.47,1.62-3.48,3.75l-.04,50.39c0,4.38-4.08,7.4-7.96,7.49-3.74.08-8.09-2.78-8.1-7.23v-88.87c0-4.36,4.03-7.22,7.71-7.4,3.75-.18,8.2,2.49,8.25,6.69l.17,16.32c.02,1.46,1.21,2.88,2.97,2.88h138.54c1.47,0,2.53-1.72,2.54-2.9l.16-35.99c0-1.81-1.13-3.38-3.18-3.38l-332.65-.08c-15.92,0-28.47-13.71-28.47-29.19v-60.08c.01-4.39,4.07-7.27,7.99-7.28,3.6-.01,7.61,2.87,7.62,7.13l.12,60.68c.01,7.1,5.97,13.08,13.23,13.08l244.74-.06c3.33,0,5.41-2.89,5.41-5.91l.05-154c0-4.53,5.1-7.13,8.7-6.71,4.03.47,7.07,3.86,7.04,8.04l-.08,11.19-.03,143.42c0,2.42,1.79,4,4.1,4l61.85-.02c2.45,0,3.48-1.71,3.48-4.01l.18-228.02c.02-19.57-14.57-38.04-35.05-38.07L179.9.06,163.43,0c-1.83,0-3.32,1.42-3.32,3.43l-.02,113.73v102.74c0,4.44-3.55,7.44-7.53,7.6-3.35.14-7.85-2.49-7.86-6.58l-.04-57.51-19.55-22.4-50.94-58.55-46.52,54.06L.21,168.61l.02,144.89c0,2.27,1.58,3.44,3.83,3.44l206.81-.02c5.02,0,8.5,3.23,8.47,7.99-.02,4.2-3.26,7.74-8.03,7.74H3.58c-2.03,0-3.36,1.33-3.36,3.12v37.86c0,1.91,1.45,3.26,3.36,3.26l37.92.02,168.9-.04c4.85,0,8.47,2.42,8.94,7.2.37,3.78-2.44,8.6-7.18,8.6l-208.57.02c-1.95,0-3.34,1.45-3.34,3.18l-.06,65.29c-.02,19.56,15.32,37.59,35.56,37.61l190.97.18,18.88.06c1.93,0,3.56-1.2,3.56-3.36l.04-55.67c0-8.53,7.29-16.71,16.06-16.71l68.72.02c8.06,0,15.39,7.61,15.41,15.61l.2,56.75c0,1.88,1.26,3.34,3.11,3.32l23.09-.27c18.58-1.53,33.4-17.47,33.43-36.2ZM244.96,111.97c31.85,0,57.67,25.82,57.67,57.67s-25.82,57.67-57.67,57.67-57.67-25.82-57.67-57.67,25.82-57.67,57.67-57.67Z"/>
  <path class="st0" d="M2.71,141.3l63.51-74.21c3.58-4.19,10.89-5.53,14.82-.99l63.36,73.11.28-44.06c-.4-.53-1.02-1.14-1.43-1.39l-22.88-.02c-4.03,0-6.6-3.74-6.71-7.13-.1-3.11,2.36-7.25,6.07-7.27l23.07-.12c.93,0,1.84-.94,1.84-2.01l-.02-74.24c0-1.94-1.7-2.87-3.39-2.87l-90.61-.03-13.97-.03C15.8.52.07,17.24.05,38L0,140.14c0,.51.65,1.57,1.03,1.78.37.21,1.29-.15,1.68-.61Z"/>
</svg>
